<svg width="160" height="21" viewBox="0 0 160 21" fill="none" xmlns="http://www.w3.org/2000/svg">
<g clip-path="url(#clip0_424_4830)">
<path d="M5.22134 0.979004H0.759155V20.021H5.22134V0.979004Z" fill="#789091"/>
<path d="M11.1877 4.87816H17.0785V20.021H21.5659V4.87816H27.4566V0.979004H11.1877V4.87816Z" fill="#789091"/>
<path d="M51.8852 15.853C51.1793 16.1387 50.3558 16.2816 49.423 16.2816C48.6331 16.2816 47.902 16.1471 47.2297 15.8782C46.5575 15.6093 45.9776 15.2228 45.4986 14.7102C45.0112 14.1976 44.6415 13.5925 44.3726 12.8782C44.1037 12.1723 43.9692 11.374 43.9692 10.5001C43.9692 9.61773 44.0953 8.82781 44.3558 8.12193C44.6163 7.41605 44.9944 6.8026 45.4818 6.29C45.9776 5.77739 46.5491 5.39084 47.2129 5.12193C47.8768 4.85302 48.6079 4.71857 49.4146 4.71857C50.3306 4.71857 51.1289 4.86983 51.818 5.16395C52.507 5.45807 53.0953 5.87823 53.5827 6.41605L56.5659 3.40764C55.6835 2.56731 54.6499 1.90344 53.4482 1.41605C52.2465 0.928653 50.902 0.693359 49.4146 0.693359C47.9944 0.693359 46.6835 0.94546 45.465 1.44966C44.2465 1.95386 43.1793 2.64294 42.2802 3.51689C41.3726 4.39924 40.6667 5.43285 40.1541 6.62613C39.6415 7.81941 39.3894 9.11353 39.3894 10.5085C39.3894 11.8866 39.6415 13.1808 40.1457 14.3824C40.6499 15.5841 41.3558 16.6261 42.2718 17.5169C43.1877 18.4076 44.2549 19.0967 45.4818 19.5841C46.7087 20.0799 48.0365 20.3236 49.4734 20.3236C51.0365 20.3236 52.3978 20.0883 53.5575 19.6093C54.7255 19.1387 55.7591 18.4749 56.6751 17.6345L53.6667 14.6513C53.1961 15.1639 52.5995 15.5673 51.8852 15.853Z" fill="#789091"/>
<path d="M74.4062 11.5251C75.3894 11.0629 76.1541 10.4075 76.7087 9.57554C77.255 8.74361 77.5323 7.76041 77.5323 6.63436C77.5323 5.54193 77.255 4.57554 76.7087 3.7268C76.1625 2.88646 75.4062 2.2142 74.4482 1.7268C73.4902 1.231 72.3726 0.987305 71.1037 0.987305H67.6919H66.7003H63.2297V20.0293H67.6919V12.231H68.0617L73.5491 20.0293H78.7676L72.776 12.0629C73.3642 11.9369 73.9104 11.7604 74.4062 11.5251ZM67.6835 4.39907H70.5323C71.3558 4.39907 71.986 4.61756 72.4314 5.04613C72.8684 5.4747 73.0869 6.02092 73.0869 6.68478C73.0869 7.39907 72.8684 7.9705 72.4314 8.38226C71.9944 8.79403 71.3558 9.00411 70.5323 9.00411H67.6835V4.39907Z" fill="#789091"/>
<path d="M128.524 12.6429L125.087 0.979004H121.557L118.104 12.6345L114.625 0.979004H110.188L116.289 20.021H119.81L123.305 8.28153L126.801 20.021H130.331L136.406 0.979004H132.045L128.524 12.6429Z" fill="#789091"/>
<path d="M158.683 6.66798C158.179 5.50831 157.473 4.50831 156.557 3.65957C155.641 2.81083 154.574 2.14697 153.356 1.68478C152.137 1.2226 150.801 0.987305 149.347 0.987305H146.12H144.482H141.658V20.0293H144.667H146.12H149.398C150.835 20.0293 152.154 19.8024 153.381 19.3402C154.599 18.8865 155.658 18.231 156.566 17.3739C157.473 16.5251 158.171 15.5167 158.675 14.3655C159.179 13.2058 159.431 11.9201 159.431 10.5083C159.431 9.10495 159.179 7.82764 158.683 6.66798ZM154.179 13.5251C153.725 14.3739 153.078 15.0293 152.247 15.4747C151.415 15.9201 150.44 16.147 149.331 16.147H146.129V4.85285H149.331C150.44 4.85285 151.415 5.07974 152.247 5.54193C153.078 5.99571 153.725 6.64277 154.179 7.4663C154.633 8.28982 154.868 9.29823 154.868 10.4747C154.868 11.6512 154.633 12.6764 154.179 13.5251Z" fill="#789091"/>
<path d="M95.0448 7.96235C99.5742 7.96235 103.431 5.0716 104.885 1.04639H99.8936C98.8011 2.54219 97.0364 3.50857 95.0448 3.50857C93.0532 3.50857 91.2885 2.53378 90.1961 1.04639H85.2045C86.6583 5.08 90.5154 7.96235 95.0448 7.96235Z" fill="#789091"/>
<path d="M95.0449 9.55859C89.2802 9.55859 84.5827 14.2561 84.5827 20.0208H89.0365C89.0365 16.7099 91.734 14.0124 95.0449 14.0124C98.3558 14.0124 101.053 16.7099 101.053 20.0208H105.507C105.507 14.2477 100.81 9.55859 95.0449 9.55859Z" fill="#789091"/>
</g>
<defs>
<clipPath id="clip0_424_4830">
<rect width="160" height="20" fill="white" transform="translate(0 0.5)"/>
</clipPath>
</defs>
</svg>
